<?xml version="1.0" encoding="utf-8"?>
<!-- Generator: Adobe Illustrator 26.5.0, SVG Export Plug-In . SVG Version: 6.00 Build 0)  -->
<svg version="1.1" id="Calque_1" xmlns="http://www.w3.org/2000/svg" xmlns:xlink="http://www.w3.org/1999/xlink" x="0px" y="0px"
	 viewBox="0 0 32 32" style="enable-background:new 0 0 32 32;" xml:space="preserve">
<style type="text/css">
	.st0{fill-rule:evenodd;clip-rule:evenodd;fill:#FF6700;}
</style>
<path class="st0" d="M16,2.7l-0.7-0.7L16,2.7z M16.7,1.9L16.7,1.9L16.7,1.9L16.7,1.9l0.1,0.1l0.3,0.3c1.7,1.7,3.4,3.5,4.9,5.4
	c1.4,1.7,2.7,3.5,3.8,5.4c1,1.8,1.8,3.7,1.8,5.5c0,6.4-5.2,11.7-11.7,11.7S4.3,25.1,4.3,18.7c0-1.7,0.8-3.7,1.8-5.5
	c1-1.8,2.4-3.7,3.8-5.4c1.7-2,3.4-3.9,5.3-5.8L15.3,2l0,0l0,0L16,1.3L16.7,1.9z M16,2.7l0.7-0.7L16,2.7z M17,13.3c0-0.6-0.4-1-1-1
	s-1,0.4-1,1v2.9l-2.5-1.5c-0.5-0.3-1.1-0.1-1.4,0.4c-0.3,0.5-0.1,1.1,0.4,1.4l0,0L14,18l-2.5,1.5c-0.5,0.3-0.6,0.9-0.4,1.4
	c0.3,0.5,0.9,0.6,1.4,0.4l0,0l2.5-1.5v2.9c0,0.6,0.4,1,1,1s1-0.4,1-1v-2.9l2.5,1.5c0.5,0.3,1.1,0.1,1.4-0.4c0.3-0.5,0.1-1.1-0.4-1.4
	l0,0L18,18l2.5-1.5c0.5-0.3,0.6-0.9,0.4-1.4c-0.3-0.5-0.9-0.6-1.4-0.4L17,16.3V13.3z"/>
</svg>
